<?xml version="1.0" encoding="utf-8"?>
<!DOCTYPE svg PUBLIC "-//W3C//DTD SVG 1.0//EN" "http://www.w3.org/TR/2001/REC-SVG-20010904/DTD/svg10.dtd">
<svg version="1.0" xmlns="http://www.w3.org/2000/svg" width="1024px" height="1024px" viewBox="0 0 1024 1024" preserveAspectRatio="xMidYMid meet">
 <g fill="#122c4a">
  <path d="M419.3 827.5 c-13.3 -3.7 -23.2 -14.9 -27.3 -31 -1.6 -6.4 -2 -11 -2 -24.9 0.1 -18.8 1.1 -25.7 5.4 -35.3 3.5 -7.7 12.2 -16.3 20.2 -20 6.8 -3.1 19.8 -4.2 28.5 -2.4 15.1 3.1 25.5 15.5 27.5 32.6 l0.7 5.5 -10 0 -10 0 -0.6 -5.5 c-0.7 -6.7 -3.1 -11.2 -7.8 -14.3 -3 -2.1 -4.4 -2.3 -11.1 -2 -6.7 0.3 -8.1 0.7 -11.5 3.4 -5.3 4.2 -8.3 10.7 -9.9 21.6 -1.7 11.7 -1.8 20.8 0 32.3 1.9 12.9 6 20.1 13.2 23.1 4.6 1.9 15.1 1.7 19.4 -0.4 4.7 -2.3 8 -8.8 8 -15.9 l0 -5.3 10 0 10 0 0 3.3 c-0.1 14.1 -10 28.9 -22.5 33.7 -7.7 2.9 -22.6 3.7 -30.2 1.5z"/>
  <path d="M611 827.5 c-7.2 -2.1 -13.1 -5.6 -17 -10.2 -3.5 -4.3 -7 -14.5 -7 -20.4 l0 -4 9.8 0.3 9.7 0.3 0.6 5.1 c1.2 9.7 5.4 13.4 15.8 14.1 12 0.8 19.1 -3.9 19.1 -12.9 0 -9.9 -5.5 -15.1 -25.3 -23.9 -11.9 -5.3 -15.1 -7.3 -19.9 -11.9 -6.8 -6.6 -8.2 -10.8 -7.6 -22.6 0.3 -6.5 1 -9 3.1 -12.7 5 -8.5 13.8 -14.1 24.7 -15.6 13 -1.7 28.3 2.5 33.5 9.3 3.8 5 6.7 12.4 6.8 17.5 l0.2 4.6 -8.3 0.3 c-8.7 0.3 -8.4 0.5 -9.6 -5.1 -0.4 -1.5 -2.2 -4.4 -4 -6.5 -3.2 -3.4 -3.8 -3.6 -10.2 -4 -6 -0.3 -7.4 -0.1 -10.4 2 -4.8 3.3 -6.2 6.3 -5.6 12.2 1 8.9 3.4 10.9 27.1 22.2 6.6 3.2 13.8 7.5 16 9.5 7.8 7.2 10.7 16.7 8.5 28.3 -2 10.7 -8.5 18.7 -19 23.3 -5.1 2.3 -23.9 2.7 -31 0.8z"/>
  <path d="M104 771 l0 -56 9.9 0 c9.6 0 10 0.1 10.3 2.3 0.2 1.4 1 2.2 2.2 2.2 1.9 0 2.8 1.9 21.7 46.8 2.3 5.3 4.7 9.7 5.4 9.7 1.2 0 3.6 -5.3 20.1 -44.8 l6.8 -16.3 11.1 0.3 11 0.3 0 55.5 0 55.5 -9.5 0 -9.5 0 0 -35.2 c0 -19.3 -0.3 -35.5 -0.8 -35.9 -1.4 -1.4 -3 1.5 -12.7 23.8 l-9.8 22.3 -5.9 0.3 c-4.2 0.2 -6.3 -0.1 -7.1 -1.1 -0.7 -0.8 -5.6 -11.2 -11.1 -23.3 -6.5 -14.4 -10.5 -22 -11.6 -22.2 -1.6 -0.4 -1.6 2.2 -0.9 35.7 l0.7 36.1 -10.2 0 -10.1 0 0 -56z"/>
  <path d="M219 826.1 c0 -1 2.8 -10.7 19.3 -67.1 5.3 -17.9 10.3 -35.1 11.2 -38.2 l1.6 -5.8 11.4 0 c6.3 0 11.6 0.4 11.9 0.9 0.3 0.4 3.1 9.5 6.1 20.2 5.9 20.3 12 41.2 21.1 71.6 3 9.9 5.4 18.4 5.4 18.7 0 0.4 -4.6 0.5 -10.2 0.4 l-10.2 -0.3 -2.9 -11 c-1.6 -6 -3.4 -11.6 -3.9 -12.3 -0.8 -0.9 -5.2 -1.2 -17.7 -1 l-16.6 0.3 -3.1 12 -3 12 -10.2 0.3 c-6.1 0.2 -10.2 -0.1 -10.2 -0.7z m56.5 -40 c0.3 -0.6 -1.3 -8.1 -3.6 -16.8 -8 -30.6 -8.7 -32.3 -10.9 -27 -1.8 4.2 -11 42.8 -10.5 43.8 0.8 1.2 24.2 1.2 25 0z"/>
  <path d="M333 780.1 c0 -41.8 -0.2 -47 -1.6 -47.5 -0.9 -0.3 -7.4 -0.6 -14.5 -0.6 l-13 0 0.3 -8.7 0.3 -8.8 38.3 -0.3 38.2 -0.3 0 9 0 9 -14.2 0.3 -14.3 0.3 -0.3 47.3 -0.2 47.2 -9.5 0 -9.5 0 0 -46.9z"/>
  <path d="M491 770.5 l0 -56.5 9.8 0.2 9.7 0.3 0.3 22.8 0.2 22.7 18.8 -0.2 18.7 -0.3 0.3 -22.8 c0.2 -20.3 0.4 -22.8 1.8 -22.3 0.9 0.3 5.4 0.6 10 0.6 l8.4 0 0 56 0 56 -10 0 -10 0 0 -22.9 c0 -12.6 -0.3 -23.6 -0.6 -24.5 -0.5 -1.4 -3.2 -1.6 -19 -1.6 l-18.4 0 0 24.5 0 24.5 -10 0 -10 0 0 -56.5z"/>
  <path d="M697.8 779.8 l-0.3 -47.3 -13.7 -0.3 -13.8 -0.3 0 -8.3 0 -8.3 19.8 -0.5 c10.8 -0.2 27.8 -0.4 37.7 -0.4 l18 0.1 0.3 7.1 c0.3 8.7 -1 10.6 -7.2 10.4 -2.2 -0.1 -7.8 -0.1 -12.3 -0.1 l-8.3 0.1 0 47.5 0 47.5 -10 0 -10 0 -0.2 -47.2z"/>
  <path d="M744.3 825.3 c0.2 -1 2.8 -9.7 5.7 -19.3 2.8 -9.6 6.7 -22.9 8.7 -29.5 1.9 -6.6 5.9 -20.5 9 -31 3.1 -10.4 6.2 -21.6 7.1 -24.8 l1.5 -5.8 12 0.3 12.1 0.3 3.2 11 c1.8 6.1 5.5 18.9 8.4 28.5 2.8 9.6 7.7 26.1 10.7 36.5 3.1 10.5 6.6 22.4 7.8 26.5 1.3 4.1 2 7.9 1.6 8.3 -0.5 0.4 -5 0.6 -10.2 0.5 l-9.4 -0.3 -2.3 -8.5 c-1.3 -4.7 -2.9 -10.1 -3.5 -12 l-1.3 -3.5 -17.4 0 -17.4 0 -3.1 12 -3 12 -10.4 0.3 c-9.5 0.3 -10.3 0.1 -9.8 -1.5z m56.7 -41.1 c0 -1.5 -0.5 -4.3 -1 -6.2 -0.6 -1.9 -2.6 -9.8 -4.6 -17.5 -4.7 -18.6 -5.3 -20.5 -6.9 -20.5 -0.8 0 -1.9 1.7 -2.4 3.8 -10.5 39.5 -10.8 41.1 -9.4 42.5 0.3 0.4 6 0.7 12.5 0.7 l11.8 0 0 -2.8z"/>
  <path d="M848 771 l0 -56 10 0 10 0 0 26.5 c0 24.7 0.1 26.5 1.8 26.5 1.3 0 4.8 -5.6 12.7 -19.7 5.9 -10.9 12.5 -22.7 14.5 -26.3 l3.6 -6.5 10.7 -0.3 c5.9 -0.1 10.7 0 10.7 0.3 0 1.1 -5.1 10.7 -15.4 28.8 -5.6 10 -10.5 19 -10.9 20.1 -0.7 1.7 3.2 9.9 16.8 35.1 10.9 20.2 13.5 25.4 13.5 26.4 0 0.7 -3.4 1.1 -10.4 1.1 l-10.4 0 -11.4 -21.2 c-6.2 -11.6 -11.8 -21.3 -12.4 -21.5 -0.7 -0.2 -3.9 3.1 -7.3 7.4 l-6.1 7.8 0 13.8 0 13.7 -10 0 -10 0 0 -56z"/>
  <path d="M363.2 626 c-8.3 -2 -16.3 -10.5 -18.2 -19.3 -0.8 -3.6 -1 -23.1 -0.8 -62.3 l0.3 -57.1 10 2.2 c14.1 3.1 22.1 4.8 121.5 25.6 5.2 1.1 9.8 2.3 10.2 2.7 0.4 0.4 0.9 5.2 1 10.7 l0.3 10 4.5 2.3 c4.1 2 5.8 2.2 21.2 2.2 l16.7 0 3.6 -3.1 c3.4 -3.1 3.5 -3.2 3.5 -10.9 0 -12.6 -0.5 -12.1 15.6 -15.2 7.7 -1.5 24.7 -5 37.9 -7.8 36.8 -7.8 86.9 -18 88.3 -18 0.9 0 1.2 12.5 1.2 59.3 0 57.4 -0.1 59.3 -2.1 63.7 -2.5 5.5 -7.1 10.5 -12.4 13.3 l-4 2.2 -147.5 0.2 c-81.1 0 -149 -0.2 -150.8 -0.7z"/>
  <path d="M463.5 493 c-21.1 -4.5 -65.3 -13.7 -97 -20.2 -8.2 -1.6 -16.7 -3.4 -18.7 -3.9 l-3.8 -1 0 -28.2 c0 -17.4 0.4 -29.7 1.1 -32.2 2.2 -7.7 9.5 -15.4 16.8 -17.5 4.4 -1.3 30.9 -2.5 34.5 -1.6 1.4 0.3 2.6 1.3 2.6 2.2 0 1.4 0.9 1.5 6.3 0.7 3.4 -0.4 10.1 -0.7 14.9 -0.5 5.3 0.2 8.9 -0.1 9.3 -0.8 0.4 -0.6 5.1 -1 11.9 -1 7.4 0 11.6 -0.4 12.4 -1.2 0.8 -0.8 1.2 -5 1.2 -12.3 0 -7.9 0.5 -12.4 1.7 -16 2.4 -6.7 11.7 -16.5 18.5 -19.6 5.2 -2.4 5.8 -2.4 36.8 -2.4 29.9 0 31.7 0.1 36 2.1 6.8 3.1 14.5 10.7 17.7 17.2 2.5 5.1 2.8 6.9 3.2 18.2 0.2 6.9 0.7 12.8 1.2 13.1 0.5 0.3 21 0.6 45.4 0.7 42.9 0.1 44.6 0.2 49.2 2.2 6.6 2.9 10.9 7.4 13.3 13.7 1.8 4.9 2 7.8 2 34.3 l0 29 -2.2 0.5 c-1.3 0.3 -17.6 3.6 -36.3 7.4 -67.8 13.9 -93.2 19.1 -98.3 20.5 -2.8 0.7 -5.4 1.1 -5.7 0.8 -0.3 -0.3 -0.5 -4.3 -0.5 -8.8 0 -8.2 0 -8.3 -3.3 -10.8 -3.3 -2.6 -3.6 -2.6 -21.3 -2.6 -16 0 -18.2 0.2 -21.1 2 -4.7 2.8 -5.6 5.2 -4.8 13 0.4 3.7 0.3 7 -0.2 7.2 -0.4 0.2 -10.7 -1.7 -22.8 -4.2z m80.7 -104 c2.9 0 3.8 -2.4 3.8 -9.9 0 -10.1 -1.3 -14.3 -5.6 -18.1 l-3.6 -3.1 -27.4 0.3 -27.4 0.3 -3.7 3.8 -3.8 3.7 0 11.3 0 11.2 25 0 c16.6 0 25.6 0.4 26.9 1.1 1 0.6 3.8 0.9 6.1 0.6 2.8 -0.3 4.5 0 5 0.8 0.6 1 1.1 0.9 2 -0.3 0.7 -1 1.9 -1.7 2.7 -1.7z"/>
 </g>
 <g fill="#de6917">
  <path d="M578.9 338.1 c3.6 -5.1 9 -17.3 11.2 -25.6 3 -10.8 3.2 -34.7 0.5 -44.5 -2.6 -9.3 -5.6 -16 -7.3 -16 -0.8 0 -3.6 1.9 -6.1 4.1 -6.2 5.5 -14.3 9.3 -18.1 8.4 -3.3 -0.7 -6.5 -3.8 -8.1 -7.9 -0.7 -1.9 -0.8 -8.6 -0.4 -20 0.7 -20.1 -0.5 -26.3 -8 -42.1 -8.1 -17.2 -21.3 -34.5 -26.3 -34.5 -1.7 0 -2.1 0.8 -2.7 6.2 -1.2 12 -6.7 24 -15.5 34 -2.7 3.1 -11.6 10.2 -26.1 20.7 -7.6 5.5 -21.4 20 -26.5 27.6 -9.8 14.9 -13.2 27.9 -12.2 46 0.8 12.1 3.3 22.2 8.7 35.1 2.2 5.4 3.8 9.9 3.6 10.2 -0.5 0.5 -5.1 -2.6 -11.3 -7.6 -5.7 -4.6 -14.3 -16.1 -18.8 -25.1 -8.1 -16.3 -11.5 -41 -8.1 -58.1 5.4 -26.5 27.2 -52.7 66.1 -79.5 27.7 -19.1 39.9 -30.4 45.9 -42.7 3.6 -7.3 6.6 -19.5 6.6 -26.9 0 -2.1 0.3 -3.9 0.6 -3.9 1.1 0 9 5.9 14.2 10.5 6 5.4 14.9 16.1 20.9 25 15.2 22.8 22.4 48.7 19.3 70 -0.6 4.4 -1.4 12.3 -1.7 17.6 -0.5 9.3 -0.5 9.7 1.8 11.3 3.2 2.2 7.5 2 11.5 -0.5 5.2 -3.2 13.8 -13.2 17.4 -20.4 1.8 -3.6 3.5 -6.5 3.7 -6.5 0.9 0 7.2 14.9 9.7 22.8 9.2 29.2 7.1 59.4 -5.5 80.9 -5.3 9 -22.9 26.1 -31.5 30.6 -8.7 4.5 -10.2 4.6 -7.5 0.8z"/>
 </g>
 <g fill="#2c3d54">
  <path d="M729.8 729.5 c3.1 -2.6 6.6 -3.3 7.7 -1.5 0.3 0.6 1 1 1.4 1 1.1 0 4.6 -3.2 5.9 -5.5 1 -1.7 1.2 -1.2 1 3 l-0.3 5 -9.4 0.3 -9.3 0.3 3 -2.6z"/>
  <path d="M125.5 724 c0.3 -0.5 -0.1 -1 -1 -1 -2.9 0 -5.7 -2 -4.6 -3.4 1.1 -1.3 0.3 -3 -1.9 -3.9 -0.8 -0.3 0.8 -0.6 3.7 -0.6 l5.2 -0.1 1.2 4.1 c1.1 3.4 1 4.2 -0.2 5 -1.9 1.2 -3.2 1.1 -2.4 -0.1z"/>
  <path d="M491.1 626.6 c0.7 -0.8 22.3 -1.2 25.9 -0.5 1.9 0.3 -3.2 0.7 -11.4 0.8 -8.2 0 -14.7 -0.1 -14.5 -0.3z"/>
  <path d="M425.7 398.4 c-0.3 -0.3 -0.3 -1.2 -0.1 -1.9 0.3 -0.7 -0.4 -1.5 -1.5 -1.8 -1.2 -0.3 -2.1 -0.1 -2.1 0.4 0 0.4 -0.7 0.6 -1.5 0.3 -0.8 -0.4 -1.5 -0.1 -1.5 0.6 0 0.7 -0.8 0.4 -1.9 -0.8 -1 -1.2 -2.1 -1.9 -2.4 -1.5 -0.4 0.3 -2.5 0.7 -4.8 0.8 -2.3 0.1 -4.4 0.7 -4.8 1.2 -0.3 0.6 -1.3 1 -2.1 1 -0.8 0 -2.2 0.2 -3 0.4 -0.8 0.2 -1.4 -0.2 -1.2 -0.8 0.1 -0.7 -0.5 -1.3 -1.3 -1.3 -1 0 -1.5 -1 -1.5 -3.2 l0 -3.3 7.2 0.2 c4 0.1 13.4 0.2 20.8 0.2 l13.5 0.2 -3 2.4 c-1.6 1.4 -3.5 2.5 -4.2 2.5 -1.5 0 -3.5 3.5 -2.6 4.4 0.3 0.3 0.2 0.6 -0.4 0.6 -0.5 0 -1.2 -0.3 -1.6 -0.6z"/>
  <path d="M536.9 394.8 c-0.7 -1.3 -1.4 -1.8 -1.6 -1.2 -0.7 2.1 -10.3 0.2 -10.3 -2 0 -0.8 -1.1 -1.3 -2.7 -1.2 -1.4 0 -2.8 -0.4 -3 -1 -0.3 -0.9 2.5 -1.1 9.9 -0.8 5.7 0.2 12 0.4 14.1 0.4 l3.9 0 -1.9 3.3 c-1.1 1.7 -2.6 3.2 -3.4 3.2 -0.8 0 -1.9 0.4 -2.6 0.8 -0.7 0.5 -1.7 -0.1 -2.4 -1.5z"/>
 </g>
</svg>